<svg xmlns="http://www.w3.org/2000/svg" width="500" height="500" viewBox="0 0 500 500">
  <g fill="#1A202C" fill-rule="evenodd" transform="translate(63 58)">
    <path d="M292.362458 243.716356C293.537822 252.187682 287.01609 260.280442 279.070992 263.543066 271.125893 266.805161 262.152749 266.246804 253.645935 265.025165 249.381665 264.412501 245.019359 263.648516 240.802782 264.528496 235.221659 265.692664 230.627248 269.587987 226.775256 273.771716 220.401372 280.695036 215.34964 288.742453 208.928593 295.622539 202.507016 302.502097 194.188324 308.354572 184.771636 308.957219 181.770167 309.149665 178.571036 308.732083 176.194873 306.898308 170.2126 302.280125 173.112325 292.670993 177.598102 286.601818 183.521024 278.588672 191.341061 271.914214 196.000122 263.113357 197.384274 260.499251 198.490219 257.558251 198.023359 254.639922 197.256034 249.842474 192.583195 246.688991 188.052374 244.878415 183.522084 243.067838 178.517514 241.878362 175.001492 238.507653 170.14583 233.852562 169.518404 226.082479 171.692138 219.731225 173.865342 213.379971 178.333632 208.107471 182.706536 203 202.762968 210.819118 224.070542 203.639027 252.127713 213.517056 280.184885 223.395613 292.362458 243.716356 292.362458 243.716356M323.528035 185.476582C323.528035 185.476582 343.977213 173.509073 342.409378 193.981869 340.841017 214.455194 367.5 213.667677 367.5 213.667677 367.5 213.667677 356.997976 239.127552 342.646578 249.62672 328.295706 260.125888 311.045837 268 311.045837 268L298.5 245.95217C298.5 245.95217 317.192003 217.917416 323.528035 185.476582M15.5 222.984929C15.5 222.984929 46.4907821 207.91921 46.4907821 236.375207 46.4907821 264.831203 68.5151998 249.02214 76.3809502 264.831203 84.2472282 280.639737 48.0641433 317 48.0641433 317 48.0641433 317 26.039198 293.28667 21.3201699 269.573869 16.6000865 245.860539 15.5 222.984929 15.5 222.984929M135.127934 352.066109C138.791363 355.016081 143.15356 356.463556 147.792124 355.868113 150.0554 355.577747 150.083141 351.837847 147.792124 352.132027 144.161147 352.598357 140.596121 351.783369 137.666006 349.424481 135.861248 347.971559 133.302239 350.596843 135.127934 352.066109M161.256185 357C164.418949 357 167.581183 357 170.743417 357 173.083671 357 173.087383 353 170.743417 353 167.581183 353 164.418949 353 161.256185 353 158.916461 353 158.912749 357 161.256185 357M290.70749 308.74974C291.047841 311.531177 290.445765 314.024713 288.831255 316.327387 287.4677 318.27139 290.667639 320.111385 292.020424 318.182929 293.949974 315.430979 294.808389 312.084998 294.400722 308.74974 294.116918 306.430982 290.420455 306.402568 290.70749 308.74974M283.784589 328.349227C280.7022 330.55157 278.883872 333.6047 278.5105 337.270354 278.275557 339.584449 282.058915 339.568635 282.293306 337.270354 282.523837 335.001591 283.779074 332.838255 285.693365 331.470883 287.62034 330.094023 285.736934 326.954971 283.784589 328.349227M280.213493 314.527329C278.455324 315.904386 277.491621 318.04353 277.5 320.208636 277.509613 322.594957 281.364989 322.599284 281.355993 320.208636 281.350932 318.935967 281.926118 317.94401 282.939862 317.150011 283.747821 316.517192 283.623001 315.184487 282.939862 314.527329 282.140899 313.758751 281.023138 313.892887 280.213493 314.527329M51.679969 120.961408C54.8458707 118.008728 57.9901584 115.033659 61.1112111 112.037244 60.1412856 111.91645 59.1713601 111.796177 58.2014346 111.675903 60.0888718 114.6416 60.9285734 117.804108 60.7751144 121.278492 60.6729885 123.576178 64.3786983 123.571492 64.4802838 121.278492 64.6602199 117.215238 63.6065404 113.339422 61.4013783 109.873368 60.7788968 108.895563 59.3507558 108.687297 58.4910614 109.512028 55.3694683 112.508964 52.2257209 115.483512 49.0598193 118.436713 47.3431322 120.037752 49.964903 122.560885 51.679969 120.961408M143.089246 139.548875C144.665597 138.461741 151.98086 133.189088 153.600668 134.959219 154.417039 135.851361 153.286639 137.770881 153.008825 138.870595 152.677724 140.178406 152.589258 141.393962 152.903804 142.716974 153.438739 144.964626 156.860978 144.012728 156.325008 141.761407 155.859397 139.805719 157.308999 137.807049 157.478688 135.863941 157.6401 134.016757 156.88581 132.271786 155.175984 131.44307 153.161442 130.466536 150.920819 131.291059 149.016989 132.120825 146.300926 133.304931 143.741619 134.760558 141.298714 136.445249 139.422303 137.739431 141.195245 140.855637 143.089246 139.548875M146.446421 344.468408C150.244759 346.241781 154.33385 346.539655 158.266708 345.022552 160.441272 344.183292 159.50122 340.505637 157.301235 341.354327 154.331732 342.49978 151.19911 342.54693 148.279389 341.183479 146.163082 340.19556 144.313166 343.472168 146.446421 344.468408"/>
    <path d="M72.0829833,340.362178 C51.9261645,322.656404 33.4197443,300.109273 24.721769,274.359269 C15.8696791,248.152543 15.8670402,218.687375 18.4278761,191.398912 C20.7232338,166.936513 26.4587251,141.893555 39.7489991,120.936218 C42.929988,115.920217 46.5395422,111.183647 50.5961343,106.846114 C54.5207789,102.650413 59.6477287,95.3703844 65.0755186,100.944189 C69.0983322,105.075325 71.7525869,111.141309 73.7792996,116.47855 C74.0928067,117.304672 74.6591251,117.721701 75.5247003,117.810611 C82.1621843,118.492783 88.7775012,119.59516 95.3205109,120.891234 C100.7008,121.957094 106.048893,123.200775 111.321513,124.716477 C114.21644,125.54842 117.086561,126.458688 119.917625,127.48962 C122.184482,128.315212 125.175994,130.59935 127.456046,130.43476 C131.335301,130.154271 136.295469,126.44387 139.810021,124.954629 C147.849315,121.548003 156.980078,117.440683 165.82689,117.043763 C176.951642,116.543645 173.43234,132.035668 172.383622,139.160633 C171.035647,148.318884 168.824208,157.433737 168.243639,166.691482 C167.565429,177.505679 166.855024,191.446013 174.959764,199.850645 C187.782416,213.148499 210.155952,206.177538 226.334291,208.434157 C248.637631,211.545474 270.86233,221.621931 287.293481,237.162114 C305.304306,254.19683 311.514281,275.767539 306.886092,299.989139 C302.927141,320.708853 293.771572,340.389168 283.134498,358.463283 C281.117813,361.89002 278.636145,368.141233 275.421906,370.670403 C270.728271,374.363869 258.254488,374.354872 252.12896,374.768197 C243.313288,375.363576 233.551288,375.968481 224.866508,373.935196 C223.907514,373.710804 221.869718,373.536689 221.207869,372.785718 C219.61025,370.973649 223.238276,367.91102 224.80634,366.37309 C227.850631,363.38667 231.587383,360.937413 235.38008,358.99198 C236.24935,358.545843 236.502161,357.318039 236.029261,356.509382 C228.429617,343.515304 222.340506,325.759254 226.137426,310.747768 C230.567693,293.230398 258.766444,275.776535 276.042587,286.405504 C278.033409,287.630132 279.853756,284.492353 277.869267,283.271959 C260.402065,272.524973 232.006448,287.606846 224.513944,304.381183 C216.947022,321.323813 224.024155,343.158077 232.904218,358.341032 C233.120612,357.513323 233.336478,356.685614 233.5534,355.858435 C228.886682,358.252122 213.110519,367.579725 217.537619,374.41044 C221.407902,380.382223 237.454821,378.844822 243.123811,378.764909 C252.930145,378.627311 267.764732,379.130075 276.568793,373.914027 C281.881525,370.766722 285.215045,362.186915 288.135833,357.055014 C303.059089,330.838233 319.204705,295.451029 309.612126,264.811509 C300.08341,234.375211 268.145796,214.632448 238.80913,207.199473 C231.071204,205.238692 223.070967,204.03047 215.083925,203.908748 C206.026525,203.770091 197.004486,205.391638 188.079561,203.01224 C175.051071,199.538932 171.786692,188.947538 171.70119,176.711841 C171.601965,162.493664 174.943402,148.960305 176.582717,134.917302 C177.535905,126.755054 178.772517,113.911806 167.649875,113.370937 C155.847969,112.797257 142.861701,119.504133 132.388241,124.2841 C131.052406,124.893238 128.903246,126.492558 127.437046,126.612693 C126.159267,126.717479 123.935688,125.127156 121.927976,124.370893 C113.004635,121.011368 103.651672,118.778565 94.2997655,117.007776 C89.3596533,116.072105 82.3791059,113.726577 77.2922682,114.380171 C76.8415358,114.437856 76.2076602,114.271679 75.7490109,114.204997 C75.992322,114.240455 77.3524362,116.271094 77.0072617,114.842714 C76.5781687,113.063986 75.4935607,111.21593 74.7119041,109.581681 C71.2517144,102.350871 64.5778129,90.0368481 55.5515523,97.125826 C25.9372688,120.383177 16.6228351,162.986902 14.2377532,198.521231 C12.7509694,220.661916 13.2228135,243.387924 18.3497632,265.062891 C23.1906509,285.531223 34.0340916,303.77522 47.2499472,319.929304 C54.0267677,328.212744 61.4886594,335.870639 69.5237307,342.928922 C71.2691314,344.462089 73.8394676,341.904871 72.0829833,340.362178"/>
    <path d="M70.3320498 310.745921C71.8828796 328.055074 70.6264911 345.404075 66.0848129 362.20212 64.9846155 366.271862 61.0956684 372.826484 63.0322269 377.032769 64.8658892 381.014847 72.0242958 383.110285 75.8314537 383.702151 86.265652 385.324204 95.3600894 380.179646 101.230447 371.716603 110.030971 359.030272 114.580564 342.266761 120.358579 328.071013 121.240848 325.902787 117.741323 324.958139 116.86908 327.102457 112.069898 338.894614 107.755647 351.077805 102.237247 362.549058 96.6618578 374.139321 86.1485086 384.072997 72.4569874 379.126614 63.7430019 375.978674 68.2503813 368.321609 69.9436827 361.804178 71.3683988 356.321184 72.4575151 350.754245 73.2389982 345.142145 74.8304588 333.716053 74.9792625 322.22833 73.9503009 310.745921 73.7429255 308.428931 70.1220361 308.407148 70.3320498 310.745921M300.516066 248.276761C314.529191 231.923003 320.616429 211.421581 324.65651 190.586797 327.096986 178.002295 328.523888 164.991155 332.041122 152.647267 332.816177 149.927382 333.621772 146.40033 335.781606 144.404405 339.70585 140.778775 346.084786 143.641226 349.862654 145.68114 355.218539 148.57274 359.626139 153.218061 362.853254 158.33719 376.06921 179.300759 369.145312 208.019075 357.902273 228.331293 347.624366 246.898799 331.325565 261.886254 310.319567 266.447838 308.049161 266.940724 309.010082 270.445517 311.279435 269.952631 347.087303 262.176686 371.166669 224.725273 373.376524 189.363061 374.517519 171.106656 367.81266 150.805568 350.687203 142.030071 345.275506 139.257188 338.165217 136.979841 333.228452 141.834506 327.174386 147.788361 326.616789 159.909126 325.159348 167.671291 320.047248 194.904588 316.645324 223.903265 297.962912 245.706332 296.451765 247.469593 298.994915 250.051682 300.516066 248.276761"/>
    <path d="M108.709273 358.555754C143.521888 372.228683 184.493691 375.55249 221.19685 368.160332 223.478813 367.70036 222.512676 364.279799 220.233882 364.738737 184.134493 372.009304 143.884784 368.571151 109.67224 355.134158 107.508601 354.28458 106.568348 357.714971 108.709273 358.555754M45.5490459 318.252389C47.3319897 326.387823 49.1149335 334.523783 50.8973597 342.659743 51.7885729 346.726408 52.7336107 350.785183 53.5715167 354.86342 54.7680816 360.684364 54.5082738 362.034133 53.0669099 368.133867 51.4547561 374.954776 55.3922413 377.250329 62.2440245 375.367702 64.44618 374.762252 63.5114931 371.281574 61.3000217 371.889128 53.3324107 374.077899 58.2133811 366.288061 58.4545573 364.127168 58.8799796 360.315623 57.4536245 356.002255 56.6597099 352.379025 54.0973428 340.68401 51.5344581 328.988469 48.9715734 317.293454 48.4752474 315.028409 45.0527199 315.986819 45.5490459 318.252389M53.5166871 145.92826C51.1568183 150.764208 52.9747154 157.098679 58.2466709 159.289029 63.5229405 161.480961 69.4420264 158.35377 71.3731713 153.342889 72.2128229 151.16413 68.6395847 150.222548 67.8069436 152.382338 66.6404911 155.409416 62.8067829 157.260966 59.6865359 155.951603 56.5619748 154.64066 55.2806566 150.680957 56.7097362 147.75241 57.7289666 145.663753 54.5413102 143.82801 53.5166871 145.92826M114.801079 163.874931C112.203997 168.275797 113.567157 174.443644 118.244908 176.960606 122.880831 179.454395 129.019876 177.237635 131.293597 172.688249 132.332858 170.609477 129.16252 168.776661 128.118432 170.865439 126.732213 173.638364 123.096941 175.400606 120.100886 173.841659 117.146658 172.304832 116.373378 168.414311 117.976244 165.697741 119.165657 163.683223 115.988884 161.86252 114.801079 163.874931M71.5003797 172.773764C71.5550354 175.816222 73.3904242 178.242045 76.1185219 179.369775 79.4696941 180.755194 83.0587485 179.594785 86.2829114 178.397945 88.427495 177.601838 87.5025132 174.049893 85.3339852 174.855107 82.5111509 175.903012 75.1680341 178.211508 75.069654 172.773764 75.027491 170.412765 71.4576963 170.404729 71.5003797 172.773764"/>
    <path d="M65.8269139 187.313498C71.6670611 188.364869 76.9707808 186.295146 80.5221348 181.657793 79.4026571 181.196573 78.2831795 180.73483 77.1637018 180.273086 76.3239596 186.222819 79.9899944 191.85127 86.1961556 192.965535 88.5079922 193.380632 89.4993917 189.917292 87.1730861 189.499574 83.1362143 188.774726 80.1212878 185.380569 80.7070174 181.228544 80.9942553 179.197081 78.6411551 178.156193 77.3485844 179.843837 74.852937 183.102773 70.8798363 184.581296 66.8038444 183.848062 64.4920078 183.431916 63.5006083 186.895256 65.8269139 187.313498M44.5600589 164.667841C31.1434544 158.439331 18.0380872 151.640391 5.21850673 144.256682 3.18671617 143.086082 1.35322667 146.23247 3.38342658 147.401477 16.203007 154.785186 29.3083743 161.584657 42.7249788 167.813167 44.834181 168.792032 46.6830468 165.653611 44.5600589 164.667841M36.7733654 169.30986C25.2795757 168.239559 13.770545 167.47038 2.23786452 167.001788-.0813898975 166.907318-.0771854934 170.588425 2.23786452 170.682358 13.770545 171.151487 25.2795757 171.920666 36.7733654 172.990968 39.0826343 173.205672 39.0684445 169.523491 36.7733654 169.30986M28.2296981 179.067199C19.5094049 181.281709 10.7132878 183.133956 1.82265761 184.627474-.493711975 185.017022.488262131 188.356724 2.79662214 187.968692 11.6861844 186.475173 20.4823015 184.622927 29.2031286 182.408417 31.4767805 181.830916 30.5118935 178.487677 28.2296981 179.067199M114.259887 187.623588C129.480939 188.343261 144.093724 191.438436 158.299577 196.871097 160.494025 197.7101 161.444242 194.210472 159.270567 193.379389 144.781353 187.838487 129.763767 184.73592 114.259887 184.002518 111.910443 183.891109 111.916302 187.512707 114.259887 187.623588M114.371336 196.312354C123.27771 201.39596 132.585131 205.577261 142.309325 208.893982 144.5 209.641252 145.441681 206.219107 143.265021 205.476488 133.825491 202.256923 124.827899 198.18518 116.185743 193.251958 114.179463 192.107281 112.367677 195.16871 114.371336 196.312354M112.996377 207.137934C116.603151 211.060901 119.656634 215.38222 122.190562 220.10136 123.294031 222.156323 126.368794 220.320188 125.264287 218.262568 122.587624 213.278392 119.320818 208.704253 115.513178 204.562457 113.940502 202.85167 111.427335 205.430864 112.996377 207.137934"/>
    <g transform="scale(-1 1) rotate(-46 -26.12 248.067)">
      <path d="M3.73291483 78.9362009C3.14156089 64.8643935 4.93991046 51.1828088 9.15330728 37.7407509 7.98960721 37.7407509 6.82590713 37.7407509 5.66167906 37.7407509 8.06986238 45.8529393 11.1633827 53.5907677 14.9939834 61.1334849 15.5420418 62.2126777 17.0315145 62.2539207 17.8372343 61.5004421 26.6383761 53.2756286 35.9638165 45.7588205 45.8800829 38.91935 44.99358 38.2367249 44.1070771 37.5546285 43.2205742 36.8720033 41.6196946 46.5567147 40.019343 56.241426 38.4189914 65.9261374 38.162914 67.4753951 39.5969473 68.7539293 41.0785001 67.9740128 49.7133236 63.427761 58.3481471 58.8809805 66.9834986 54.3347287 66.1577151 53.5077529 65.3319316 52.6813058 64.506148 51.85433 56.6701803 66.0710168 48.8342126 80.2871747 40.9982449 94.5038615 41.8240285 94.2870711 42.649812 94.0702808 43.4755955 93.8534905 30.6954865 86.1553188 17.1286655 80.2956348 2.7698527 76.262806.522179733 75.6314702-.436658441 79.1291971 1.80731856 79.7594753 15.8815423 83.7124619 29.1220626 89.4394279 41.6482063 96.9842601 42.4708218 97.480234 43.6561697 97.1846589 44.1250289 96.3338891 51.9609966 82.1177311 59.7969643 67.9010444 67.632932 53.6843577 68.5257708 52.0642465 66.753293 50.3627068 65.1561094 51.2039591 56.5207579 55.7502109 47.8859343 60.2964627 39.2511108 64.8427145 40.1376138 65.5253396 41.0241167 66.2079648 41.9106196 66.8900612 43.5109712 57.2053499 45.1113228 47.5206385 46.7116744 37.8359272 46.943464 36.4363077 45.4861989 34.7998051 44.0526936 35.7885805 33.8808779 42.8035982 24.307808 50.4964823 15.2769885 58.9364999 16.2247388 59.0586428 17.1724891 59.1813144 18.1202394 59.3034572 14.4358931 52.0473263 11.4690915 44.5775776 9.15330728 36.7762983 8.63640058 35.0356306 6.19600959 35.0721149 5.66167906 36.7762983 1.3548272 50.5181614-.493153862 64.5444956.111927937 78.9362009.209606936 81.2611449 3.83112182 81.2733063 3.73291483 78.9362009M32.1084 1.75144141C32.1084 6.48117186 32.1084 11.2109023 32.1084 15.9406328 32.1084 18.274037 35.7293869 18.2777383 35.7293869 15.9406328 35.7293869 11.2109023 35.7293869 6.48117186 35.7293869 1.75144141 35.7293869-.581962786 32.1084-.585664084 32.1084 1.75144141M54.3961076 7.14264674C52.2968011 10.2956241 50.1980227 13.4491303 48.0987162 16.6021076 46.8024895 18.5489905 49.9377213 20.3668568 51.2249721 18.4321353 53.3242786 15.2791579 55.4235851 12.1261805 57.5223636 8.97267436 58.8185903 7.02579146 55.6838864 5.20792525 54.3961076 7.14264674M75.1901185 13.1392787C72.5607055 15.2342136 69.9307644 17.3291484 67.3013514 19.4235545 65.4787141 20.8760497 68.0558556 23.4267729 69.8621251 21.9880254 72.4915382 19.8930906 75.1209512 17.7981558 77.7508923 15.7032209 79.5735296 14.2507257 76.996388 11.7000024 75.1901185 13.1392787"/>
      <path d="M25.9535671,63.8708593 C24.0717944,67.8989294 23.6361989,72.1739289 24.8041229,76.4790675 C25.1357035,77.7010247 26.4197863,78.0357279 27.4636316,77.5624904 C32.0418727,75.4865909 36.1718464,69.8939291 35.3228311,64.6053026 C34.5445671,59.7618895 26.844294,61.966277 26.2349882,65.9663229 C25.8875678,68.2494952 29.376028,69.2335118 29.7271444,66.9302467 C29.9008547,65.7870743 31.2662487,64.9363045 32.2319508,65.8870094 C32.0550726,65.4597738 31.8787224,65.0325382 31.7018442,64.6053026 C31.9051221,68.9215452 29.5529062,72.6556264 25.6362424,74.4311921 C26.5227453,74.792333 27.4092482,75.153474 28.2957511,75.5151437 C27.3949923,72.1956079 27.618862,68.8295415 29.0803511,65.7008869 C30.061893,63.6001358 26.941973,61.7568892 25.9535671,63.8708593"/>
    </g>
  </g>
</svg>
