<svg xmlns="http://www.w3.org/2000/svg" width="1000" height="225" viewBox="0 0 1000 225">
  <g fill="#666666" fill-rule="evenodd" transform="translate(425 35)">
    <path d="M116.944758 98.5170122C117.41683 101.953494 114.797446 105.236406 111.606382 106.559923 108.415318 107.883226 104.81135 107.656722 101.394679 107.161152 99.6819802 106.912618 97.9299066 106.6027 96.2363632 106.959673 93.9947647 107.43193 92.1494685 109.012108 90.6023569 110.709281 88.0423543 113.517798 86.0133799 116.782316 83.4344348 119.573294 80.8552769 122.364058 77.5141629 124.738176 73.7320506 124.982645 72.5265423 125.060713 71.2416458 124.891317 70.287285 124.147427 67.8845689 122.274013 69.0492126 118.375969 70.8508772 115.913945 73.2297555 112.663329 76.37059 109.955766 78.2418523 106.385607 78.7977824 105.325168 79.241973 104.132121 79.0544637 102.94827 78.7462758 101.002136 76.8694798 99.7228927 75.0497241 98.9884136 73.2301812 98.2539344 71.2201492 97.7714111 69.8079762 96.4040478 67.8577514 94.5156621 67.6057525 91.363647 68.4788096 88.787195 69.3516538 86.210743 71.1462948 84.0718986 72.9026251 82 80.9580772 85.1719063 89.5160372 82.2592279 100.784901 86.266353 112.053765 90.2736919 116.944758 98.5170122 116.944758 98.5170122M130.156304 75.3744627C130.156304 75.3744627 138.454521 70.6431219 137.818298 78.7370182 137.181862 86.8311233 148 86.5197794 148 86.5197794 148 86.5197794 143.738309 96.5853113 137.914553 100.736145 132.091011 104.886979 125.091064 108 125.091064 108L120 99.283416C120 99.283416 127.585161 88.1999086 130.156304 75.3744627M6 90.5858392C6 90.5858392 18.4962831 84.590298 18.4962831 95.9146231 18.4962831 107.238948 27.3770967 100.947586 30.5487702 107.238948 33.7206565 113.530099 19.1307029 128 19.1307029 128 19.1307029 128 10.2496766 118.563062 8.34684269 109.126336 6.44358327 99.6893981 6 90.5858392 6 90.5858392M54.2511735 142.314047C55.7165452 143.57832 57.4614241 144.198667 59.3168497 143.943477 60.22216 143.819034 60.2332566 142.21622 59.3168497 142.342297 57.8644589 142.542153 56.4384485 142.192872 55.2664024 141.18192 54.5444991 140.559239 53.5208954 141.684361 54.2511735 142.314047M64.6754559 144C65.8919036 144 67.1081474 144 68.3243911 144 69.224489 144 69.2259167 142 68.3243911 142 67.1081474 142 65.8919036 142 64.6754559 142 63.775562 142 63.7741343 144 64.6754559 144M116.73583 124.729058C116.84928 125.88799 116.648588 126.926964 116.110418 127.886411 115.6559 128.696413 116.722546 129.463077 117.173475 128.659554 117.816658 127.512908 118.102796 126.118749 117.966907 124.729058 117.872306 123.762909 116.640152 123.75107 116.73583 124.729058M113.981721 133.126991C112.825825 133.927844 112.143952 135.038073 112.003937 136.371038 111.915834 137.212527 113.334593 137.206776 113.42249 136.371038 113.508939 135.546033 113.979653 134.759365 114.697512 134.262139 115.420128 133.761463 114.71385 132.619989 113.981721 133.126991M111.904498 127.197748C111.318441 127.714145 110.997207 128.516324 111 129.328238 111.003204 130.223109 112.28833 130.224732 112.285331 129.328238 112.283644 128.850987 112.475373 128.479004 112.813287 128.181254 113.082607 127.943947 113.041 127.444183 112.813287 127.197748 112.546966 126.909532 112.174379 126.959833 111.904498 127.197748M21.1924884 50.1263179C22.3797015 48.8608835 23.5588094 47.5858541 24.7292042 46.3016758 24.3654821 46.249907 24.0017601 46.1983614 23.638038 46.1468157 24.3458269 47.4178287 24.660715 48.773189 24.6031679 50.262211 24.5648707 51.2469336 25.9545119 51.2449253 25.9926064 50.262211 26.0600824 48.5208162 25.6649526 46.8597522 24.8380168 45.3743005 24.6045863 44.9552411 24.0690334 44.8659846 23.746648 45.2194405 22.5760506 46.5038418 21.3971454 47.7786482 20.2099322 49.0443057 19.5661746 49.7304652 20.5493386 50.811808 21.1924884 50.1263179M57.0661602 57.2880287C57.7152459 56.8699002 60.7274128 54.8419571 61.3943926 55.5227767 61.7305453 55.8659081 61.2650867 56.604185 61.1506925 57.027152 61.0143568 57.5301561 60.9779296 57.9976777 61.1074486 58.5065284 61.3277159 59.3710099 62.7368732 59.0048955 62.5161798 58.1390027 62.3244577 57.386815 62.9213524 56.6180958 62.9912245 55.8707466 63.0576881 55.1602911 62.7470984 54.4891486 62.0430523 54.1704114 61.2135348 53.7948215 60.2909255 54.111946 59.5069953 54.4310864 58.3886165 54.8865118 57.3347841 55.4463684 56.3288823 56.0943264 55.5562423 56.5920887 56.2862774 57.7906295 57.0661602 57.2880287M58.4056091 139.387363C60.033468 140.096712 61.7859358 140.215862 63.4714462 139.609021 64.4034022 139.273317 64.000523 137.802255 63.0576722 138.141731 61.7850279 138.599912 60.4424755 138.618772 59.1911668 138.073392 58.2841779 137.678224 57.491357 138.988867 58.4056091 139.387363"/>
    <path d="M28.5115652,137.490452 C20.421872,130.383204 12.9945462,121.332596 9.50372,110.996326 C5.95104179,100.476725 5.94998268,88.6491575 6.97774292,77.6953377 C7.8989567,67.8759244 10.2008261,57.8234691 15.5347154,49.4110171 C16.8113664,47.397552 18.2600169,45.4962529 19.8880806,43.7551302 C21.4631889,42.0709403 23.5208276,39.1486754 25.6992048,41.3860478 C27.3137119,43.0443205 28.3789646,45.479258 29.192361,47.6216716 C29.3181833,47.9532837 29.5454683,48.120683 29.8928563,48.1563721 C32.5567295,48.4302017 35.2117062,48.8727052 37.8376632,49.3929601 C39.9969765,49.8208055 42.1433686,50.3200293 44.2594701,50.928445 C45.4213137,51.2623939 46.5732016,51.6277832 47.7094147,52.0416079 C48.6191901,52.3730075 49.8197971,53.2898798 50.734868,53.2238123 C52.2917595,53.1112214 54.2824625,51.621835 55.692985,51.0240411 C58.9194574,49.6565928 62.5839776,48.0078796 66.1345376,47.8485529 C70.5993213,47.6478012 69.1868923,53.8664302 68.766002,56.7264514 C68.2250087,60.4026504 67.3374746,64.0614297 67.1044704,67.7775667 C66.8322792,72.1184769 66.5471668,77.7142445 69.7999051,81.0879351 C74.9461201,86.4258059 83.9254655,83.6276034 90.4184446,84.5334291 C99.3696178,85.7823383 108.289229,89.8271132 114.883671,96.0650738 C122.112096,102.902953 124.604394,111.561618 122.746927,121.284373 C121.15805,129.601441 117.483574,137.501286 113.214514,144.756388 C112.405142,146.131909 111.409155,148.641199 110.119159,149.656429 C108.235427,151.139018 103.229226,151.135406 100.77082,151.301319 C97.2327576,151.540309 93.3148983,151.783123 89.8293677,150.966945 C89.4444872,150.876872 88.6266425,150.806981 88.3610177,150.505535 C87.7198326,149.778155 89.1758969,148.54879 89.80522,147.931452 C91.0270092,146.732677 92.5267088,145.749525 94.0488615,144.968612 C94.3977323,144.789528 94.499195,144.296678 94.3094025,143.972076 C91.2593779,138.756143 88.8155877,131.628715 90.339435,125.602977 C92.1174687,118.571357 103.434693,111.565229 110.368262,115.831787 C111.167255,116.323363 111.897829,115.063832 111.101378,114.573955 C104.09113,110.260024 92.6948954,116.314016 89.6878706,123.047376 C86.6509789,129.848291 89.4912998,138.612749 93.0552046,144.707316 C93.1420516,144.375066 93.2286868,144.042817 93.3157456,143.71078 C91.4428157,144.671627 85.111245,148.415805 86.8880077,151.157712 C88.4412983,153.554836 94.8815337,152.93771 97.1567136,152.905633 C101.092366,152.850399 107.046046,153.052213 110.579449,150.958447 C112.711649,149.695093 114.049516,146.251086 115.221739,144.191097 C121.211006,133.66746 127.690852,119.462737 123.840987,107.163775 C120.016753,94.9463876 107.198982,87.0214755 95.4250689,84.0378167 C92.3195469,83.2507426 89.1087493,82.765752 85.9032473,82.7168918 C82.2681704,82.6612336 78.6472855,83.3121365 75.0653758,82.3570258 C69.8365503,80.9628105 68.5264314,76.7113358 68.4921162,71.7998234 C68.4522937,66.092527 69.7933386,60.6601224 70.4512577,55.0231423 C70.8338082,51.7467472 71.3301071,46.5913587 66.8661707,46.3742494 C62.1296195,46.1439692 56.9177397,48.8361662 52.7143444,50.7548851 C52.178223,50.9993985 51.3156839,51.6413791 50.7272424,51.689602 C50.2144214,51.7316642 49.3220154,51.0932951 48.5162446,50.7897245 C44.9349704,49.441183 41.1812732,48.544917 37.4279995,47.8341073 C35.4453458,47.458521 32.6437883,46.5170062 30.6022481,46.7793642 C30.4213521,46.8025197 30.1669539,46.7358149 29.9828806,46.709048 C30.0805306,46.7232812 30.6263958,47.5383968 30.4878642,46.965033 C30.315653,46.2510367 29.8803588,45.5092114 29.5666505,44.8532101 C28.1779456,41.9507018 25.4994567,37.0077489 21.8768772,39.8533245 C9.99154602,49.1890219 6.25331175,66.2905171 5.29608823,80.5542968 C4.69938572,89.4417549 4.88875457,98.5641668 6.94639326,107.264682 C8.88922445,115.480843 13.241107,122.804137 18.5451293,129.288523 C21.2649235,132.613566 24.2596626,135.68751 27.4844404,138.520765 C28.1849357,139.136191 29.2165087,138.109702 28.5115652,137.490452"/>
    <path d="M28.1058128 125.698368C28.7207971 132.62203 28.2225741 139.56163 26.4215637 146.280848 25.9852786 147.908745 24.4431099 150.530594 25.2110555 152.213108 25.9381974 153.805939 28.7768759 154.644114 30.286611 154.880861 34.4243103 155.529681 38.0307251 153.471859 40.3586256 150.086641 43.8484885 145.012109 45.6526376 138.306704 47.9439194 132.628405 48.2937846 131.761115 46.906042 131.383256 46.5601526 132.240983 44.6570285 136.957845 42.9462047 141.831122 40.7578736 146.419623 38.5469436 151.055728 34.3778569 155.029199 28.9484605 153.050646 25.4929145 151.79147 27.2803236 148.728644 27.9518052 146.121671 28.5167788 143.928474 28.9486698 141.701698 29.2585683 139.456858 29.8896647 134.886421 29.9486731 130.291332 29.5406366 125.698368 29.4584015 124.771572 28.0225316 124.762859 28.1058128 125.698368M121.190552 101.211209C126.722049 94.5948029 129.124906 86.3003342 130.719675 77.8709943 131.683021 72.7795546 132.246271 67.5155056 133.634653 62.5214134 133.940596 61.421002 134.258594 59.9940266 135.11116 59.186515 136.660204 57.7196572 139.178205 58.877748 140.669469 59.7030565 142.783634 60.8729405 144.523476 62.7523454 145.797337 64.8234431 151.014162 73.3048874 148.281044 84.9237478 143.843002 93.1416681 139.785934 100.653713 133.352197 106.71734 125.060355 108.562866 124.164142 108.762278 124.543453 110.180248 125.439251 109.980835 139.573936 106.834843 149.078948 91.6827439 149.95126 77.3758949 150.401652 69.9897159 147.754997 61.7762985 140.994949 58.2259065 138.858753 57.104053 136.052059 56.1826836 134.103336 58.1467849 131.713573 60.5555966 131.493469 65.4594174 130.918164 68.5998354 128.900229 79.6178866 127.557365 91.350176 120.182728 100.171264 119.586223 100.884645 120.590098 101.929306 121.190552 101.211209"/>
    <path d="M43.4837091 144.464134C57.4087553 150.094164 73.7974765 151.46279 88.4787398 148.41896 89.3915251 148.22956 89.0050704 146.821094 88.0935529 147.010068 73.6537973 150.003831 57.5539135 148.588121 43.868896 143.055242 43.0034404 142.705415 42.6273391 144.117929 43.4837091 144.464134M18.0190734 128.900956C18.7124404 132.155129 19.4058075 135.409513 20.0989732 138.663897 20.4455561 140.290563 20.8130708 141.914073 21.1389232 143.545368 21.6042539 145.873746 21.5032176 146.413653 20.9426872 148.853547 20.3157385 151.58191 21.8469827 152.500132 24.5115651 151.747081 25.3679589 151.504901 25.0044695 150.11263 24.1444529 150.355651 21.0459375 151.23116 22.9440927 148.115224 23.0378834 147.250867 23.2033254 145.726249 22.6486318 144.000902 22.3398872 142.55161 21.3434111 137.873604 20.3467337 133.195388 19.3500563 128.517381 19.1570407 127.611364 17.8260577 127.994727 18.0190734 128.900956M21.4280788 59.3713039C20.4344498 61.3056833 21.1998802 63.8394715 23.4196509 64.7156117 25.6412381 65.5923842 28.1334848 64.3415081 28.9465984 62.3371555 29.300136 61.4656521 27.7956146 61.0890193 27.4450289 61.9529353 26.953891 63.1637665 25.3396981 63.9043864 24.0259099 63.3806413 22.7103052 62.8562639 22.1708028 61.2723828 22.7725205 60.1009641 23.2016701 59.2655011 21.859499 58.5312041 21.4280788 59.3713039M46.5059752 66.3499725C45.4959988 68.1103186 46.0261165 70.5774576 47.8452418 71.5842424 49.6481008 72.5817579 52.0355074 71.6950541 52.919732 69.8752994 53.3238894 69.0437908 52.0909799 68.3106644 51.6849457 69.1461757 51.1458606 70.2553454 49.7321439 70.9602423 48.5670111 70.3366635 47.4181447 69.7219328 47.1174249 68.1657244 47.7407615 67.0790962 48.2033111 66.2732891 46.9678991 65.5450081 46.5059752 66.3499725M29.0001424 69.7883396C29.0206383 71.1405431 29.7089091 72.2186868 30.7319457 72.7198998 31.9886353 73.3356417 33.3345307 72.8199043 34.5435918 72.2879756 35.3478106 71.9341502 35.0009424 70.3555079 34.1877444 70.7133811 33.1291816 71.1791163 30.3755128 72.2051148 30.3386202 69.7883396 30.3228091 68.7390067 28.9841361 68.7354351 29.0001424 69.7883396"/>
    <path d="M26.5528808 76.5629278C28.9862755 77.0135154 31.1961587 76.1264913 32.6758895 74.1390541 32.2094405 73.9413885 31.7429914 73.7434984 31.2765424 73.5456082 30.9266498 76.0954937 32.4541643 78.5076872 35.0400648 78.9852292 36.0033301 79.1631281 36.4164132 77.6788396 35.4471192 77.4998175 33.7650893 77.1891682 32.5088699 75.7345295 32.7529239 73.9550904 32.8726064 73.0844635 31.892148 72.6383683 31.3535768 73.3616445 30.3137238 74.7583312 28.6582651 75.3919841 26.9599352 75.0777408 25.9966699 74.8993926 25.5835868 76.3836811 26.5528808 76.5629278M17.6283954 67.6116006C12.3241564 65.0163878 7.14296469 62.1834964 2.07475848 59.106951 1.27149244 58.6192006.546624497 59.9301958 1.34926167 60.4172823 6.41746789 63.4938276 11.5986596 66.3269404 16.9028986 68.9221531 17.7367692 69.3300133 18.4677162 68.0223377 17.6283954 67.6116006M14.3184337 68.7699534C9.78141145 68.4131862 5.23837302 68.1567933.685999151 68.0005958-.229496012 67.9691059-.227836379 69.1961417.685999151 69.2274527 5.23837302 69.3838291 9.78141145 69.640222 14.3184337 69.9969892 15.2299872 70.0685573 15.224386 68.8411637 14.3184337 68.7699534M11.0918792 73.0298662C7.60376197 74.0140931 4.08531511 74.8373136.529063045 75.5010997-.39748479 75.674232-.00469514748 77.158544.918648857 76.9860854 4.47447374 76.3222993 7.9929206 75.4990787 11.4812515 74.5148519 12.3907122 74.2581849 12.0047574 72.772301 11.0918792 73.0298662M45.6966218 76.3936878C51.7216215 76.6704851 57.505849 77.8609371 63.1289994 79.950422 63.997635 80.2731153 64.3737626 78.9271044 63.5133496 78.6074573 57.7780355 76.4763411 51.8335743 75.283046 45.6966218 75.0009686 44.7666335 74.9581188 44.7689527 76.3510411 45.6966218 76.3936878M46.3372913 80.2421327C49.7849201 82.148485 53.3877926 83.7164729 57.1519968 84.9602432 58 85.2404695 58.3645215 83.9571651 57.5219437 83.678683 53.8679321 82.4713459 50.384993 80.9444424 47.0396424 79.0944842 46.2630179 78.6652303 45.5616814 79.8132664 46.3372913 80.2421327M45.1909144 84.2920903C46.5781351 85.9074299 47.7525515 87.6867965 48.7271394 89.6299717 49.1515503 90.4761332 50.3341514 89.7200773 49.9093413 88.8728223 48.8798554 86.8205144 47.6233916 84.9370452 46.1589145 83.2316 45.5540392 82.527158 44.5874364 83.5891793 45.1909144 84.2920903"/>
    <g transform="scale(-1 1) rotate(-46 -9.299 99.99)">
      <path d="M1.49715835 31.6567056C1.25998431 26.0133245 1.98124751 20.5264389 3.67111255 15.1356137 3.20438792 15.1356137 2.73766329 15.1356137 2.2707269 15.1356137 3.23657582 18.3889392 4.47729252 21.4921308 6.01362972 24.5170747 6.23343923 24.9498759 6.83082134 24.9664161 7.15397097 24.6642398 10.6838407 21.3657469 14.4239906 18.3511936 18.4011028 15.608281 18.0455535 15.3345199 17.6900042 15.0609708 17.3344549 14.7872097 16.6923909 18.6711825 16.0505386 22.5551552 15.4086864 26.439128 15.3059815 27.0604449 15.8811286 27.5731904 16.4753343 27.2604114 19.9384988 25.437175 23.4016633 23.6137265 26.8650396 21.7904901 26.533843 21.4588384 26.2026463 21.1273987 25.8714497 20.7957469 22.7286819 26.4972307 19.5859142 32.1985024 16.4431464 37.8999861 16.774343 37.8130441 17.1055396 37.7261022 17.4367362 37.6391602 12.311024 34.5518726 6.86978565 32.2018952 1.11090349 30.5845628.209430374 30.3313709-.175130391 31.7341051.724860386 31.9868729 6.36960254 33.5721852 11.6799716 35.8689372 16.703826 38.8947293 17.0337521 39.0936355 17.509159 38.9750976 17.6972041 38.6339034 20.8399719 32.9326317 23.9827397 27.231148 27.1255075 21.5296643 27.4835979 20.8799322 26.7727111 20.1975439 26.1321294 20.5349211 22.6687532 22.3581575 19.2055886 24.1813939 15.7424241 26.0046303 16.0979734 26.2783914 16.4535227 26.5521526 16.809072 26.8257016 17.4509243 22.9417288 18.0927765 19.0577561 18.7346288 15.1737833 18.8275925 14.6124775 18.2431279 13.9561718 17.6681926 14.352712 13.5885874 17.1660264 9.74912085 20.2511934 6.12713444 23.6359922 6.50724819 23.6849765 6.88736194 23.734173 7.26747569 23.7831573 5.78979672 20.8731465 4.59990303 17.877466 3.67111255 14.748828 3.46379702 14.0507477 2.48503058 14.0653794 2.2707269 14.748828.543379893 20.2598876-.197788982 25.8850321.044890884 31.6567056.0840669531 32.589105 1.53654619 32.5939822 1.49715835 31.6567056M12.8777005.70240098C12.8777005 2.59921996 12.8777005 4.49603895 12.8777005 6.39285793 12.8777005 7.32865024 14.329968 7.33013461 14.329968 6.39285793 14.329968 4.49603895 14.329968 2.59921996 14.329968.70240098 14.329968-.233391326 12.8777005-.2348757 12.8777005.70240098M21.8166207 2.86449895C20.9746529 4.12897426 20.1328968 5.39366162 19.2909289 6.65813692 18.7710519 7.43891808 20.0284979 8.16795818 20.5447749 7.39205425 21.3867428 6.12757894 22.2287106 4.86310364 23.0704667 3.59841628 23.5903437 2.81763512 22.3331095 2.08859502 21.8166207 2.86449895M30.1564647 5.26939824C29.1018872 6.10955439 28.047098 6.94971055 26.9925206 7.78965465 26.2615163 8.37216575 27.2951293 9.39511206 28.0195689 8.81811436 29.0741463 7.9779582 30.1287238 7.13780205 31.183513 6.29764589 31.9145172 5.71513479 30.8809043 4.69218848 30.1564647 5.26939824"/>
      <path d="M10.4091847,25.6148759 C9.65446299,27.2302998 9.4797589,28.9447527 9.94817763,30.6712927 C10.0811645,31.1613485 10.596171,31.2955784 11.0148255,31.1057904 C12.8510185,30.2732682 14.507425,28.0303778 14.1669109,25.9094182 C13.8547729,23.9670078 10.7664281,24.851059 10.5220541,26.4552441 C10.3827144,27.3708913 11.7818294,27.765523 11.9226515,26.8418177 C11.9923214,26.3833579 12.5399393,26.0421638 12.927253,26.423436 C12.8563125,26.2520968 12.7855838,26.0807575 12.7146434,25.9094182 C12.796172,27.6404114 11.8527699,29.1379335 10.2819154,29.8500093 C10.6374647,29.9948419 10.993014,30.1396745 11.3485633,30.2847191 C10.9872964,28.9534469 11.0770837,27.603514 11.6632424,26.3487932 C12.056909,25.5063045 10.8056041,24.7670858 10.4091847,25.6148759"/>
    </g>
  </g>
</svg>
